<?xml version="1.0" encoding="UTF-8" standalone="no"?>
<!-- Created with Inkscape (http://www.inkscape.org/) -->

<svg
   width="512"
   height="512"
   viewBox="0 0 512 512"
   version="1.1"
   id="svg1"
   xml:space="preserve"
   inkscape:version="1.3.2 (091e20ef0f, 2023-11-25)"
   sodipodi:docname="drawing.svg"
   inkscape:export-filename="drawing.export.svg"
   inkscape:export-xdpi="96"
   inkscape:export-ydpi="96"
   xmlns:inkscape="http://www.inkscape.org/namespaces/inkscape"
   xmlns:sodipodi="http://sodipodi.sourceforge.net/DTD/sodipodi-0.dtd"
   xmlns="http://www.w3.org/2000/svg"
   xmlns:svg="http://www.w3.org/2000/svg"><sodipodi:namedview
     id="namedview1"
     pagecolor="#ffffff"
     bordercolor="#000000"
     borderopacity="0.25"
     inkscape:showpageshadow="2"
     inkscape:pageopacity="0.0"
     inkscape:pagecheckerboard="0"
     inkscape:deskcolor="#d1d1d1"
     inkscape:document-units="px"
     showguides="true"
     inkscape:zoom="1.5722656"
     inkscape:cx="256"
     inkscape:cy="256"
     inkscape:window-width="1920"
     inkscape:window-height="1011"
     inkscape:window-x="0"
     inkscape:window-y="0"
     inkscape:window-maximized="1"
     inkscape:current-layer="layer1"><sodipodi:guide
       position="249.95776,475.74658"
       orientation="1,0"
       id="guide1"
       inkscape:locked="false" /><sodipodi:guide
       position="251.86584,262.04224"
       orientation="0,-1"
       id="guide2"
       inkscape:locked="false" /></sodipodi:namedview><defs
     id="defs1" /><g
     inkscape:label="Layer 1"
     inkscape:groupmode="layer"
     id="layer1"
     transform="translate(3.7565218,-31.190062)"><g
       style="fill:#000080"
       id="g1"
       transform="matrix(1.0339481,0,0,0.86439218,12.514602,121.65425)"><g
         id="g5"
         style="fill:#000080">
	<path
   d="m 55.5,232 h -8 c -4.142,0 -7.5,3.358 -7.5,7.5 0,4.142 3.358,7.5 7.5,7.5 h 8 c 4.142,0 7.5,-3.358 7.5,-7.5 0,-4.142 -3.358,-7.5 -7.5,-7.5 z"
   id="path1"
   style="fill:#000080" />
	<path
   d="m 87.5,232 h -8 c -4.142,0 -7.5,3.358 -7.5,7.5 0,4.142 3.358,7.5 7.5,7.5 h 8 c 4.142,0 7.5,-3.358 7.5,-7.5 0,-4.142 -3.358,-7.5 -7.5,-7.5 z"
   id="path2"
   style="fill:#000080" />
	<path
   d="m 55.5,256 h -8 c -4.142,0 -7.5,3.358 -7.5,7.5 0,4.142 3.358,7.5 7.5,7.5 h 8 c 4.142,0 7.5,-3.358 7.5,-7.5 0,-4.142 -3.358,-7.5 -7.5,-7.5 z"
   id="path3"
   style="fill:#000080" />
	<path
   d="m 87.5,256 h -8 c -4.142,0 -7.5,3.358 -7.5,7.5 0,4.142 3.358,7.5 7.5,7.5 h 8 c 4.142,0 7.5,-3.358 7.5,-7.5 0,-4.142 -3.358,-7.5 -7.5,-7.5 z"
   id="path4"
   style="fill:#000080" />
	<path
   d="m 455.427,336 c -9.769,0 -15.082,2.657 -19.351,4.792 -2.853,1.427 -5.105,2.548 -8.8,2.995 l 34.48,-52.151 c 1.522,-2.303 1.657,-5.256 0.35,-7.688 C 460.798,281.516 458.261,280 455.5,280 h -96 c -4.142,0 -7.5,3.358 -7.5,7.5 0,9.098 -7.402,16.5 -16.5,16.5 H 335 v -72.5 c 0,-4.142 -3.358,-7.5 -7.5,-7.5 h -32 -32 -56 -56 c -4.142,0 -7.5,3.358 -7.5,7.5 v 48 24.5 h -0.5 c -9.098,0 -16.5,-7.402 -16.5,-16.5 0,-4.142 -3.358,-7.5 -7.5,-7.5 H 119 v -64.5 c 0,-4.142 -3.358,-7.5 -7.5,-7.5 H 103 v -73 h 16.5 c 4.142,0 7.5,-3.358 7.5,-7.5 0,-4.142 -3.358,-7.5 -7.5,-7.5 H 103 v -8.5 c 0,-4.142 -3.358,-7.5 -7.5,-7.5 -4.142,0 -7.5,3.358 -7.5,7.5 v 8.5 h -8.5 c -4.142,0 -7.5,3.358 -7.5,7.5 0,4.142 3.358,7.5 7.5,7.5 H 88 v 73 H 23.5 c -4.142,0 -7.5,3.358 -7.5,7.5 V 280 H 7.5 c -2.366,0 -4.593,1.116 -6.009,3.012 -1.416,1.895 -1.854,4.347 -1.183,6.616 L 14.165,336.47 C 12.195,336.175 9.995,336 7.5,336 3.358,336 0,339.358 0,343.5 c 0,4.142 3.358,7.5 7.5,7.5 6.219,0 8.906,1.345 12.625,3.207 4.266,2.136 9.576,4.793 19.339,4.793 9.77,0 15.083,-2.657 19.352,-4.792 3.725,-1.862 6.416,-3.208 12.644,-3.208 6.222,0 8.911,1.345 12.632,3.207 4.267,2.136 9.578,4.793 19.344,4.793 9.769,0 15.082,-2.657 19.351,-4.792 3.724,-1.862 6.414,-3.208 12.641,-3.208 6.231,0 8.923,1.346 12.649,3.208 4.27,2.135 9.584,4.792 19.356,4.792 9.772,0 15.086,-2.657 19.356,-4.792 3.726,-1.863 6.418,-3.208 12.649,-3.208 6.231,0 8.923,1.346 12.649,3.208 4.27,2.135 9.585,4.792 19.356,4.792 9.77,0 15.083,-2.657 19.353,-4.792 3.724,-1.862 6.416,-3.208 12.644,-3.208 6.23,0 8.921,1.346 12.646,3.208 4.27,2.135 9.584,4.792 19.354,4.792 9.772,0 15.087,-2.657 19.358,-4.792 3.727,-1.863 6.419,-3.208 12.701,-3.208 6.219,0 8.906,1.345 12.625,3.207 4.266,2.136 9.576,4.793 19.339,4.793 9.77,0 15.083,-2.657 19.352,-4.792 3.724,-1.862 6.415,-3.208 12.643,-3.208 6.222,0 8.911,1.345 12.632,3.207 4.267,2.136 9.578,4.793 19.344,4.793 9.769,0 15.082,-2.657 19.351,-4.792 3.724,-1.862 6.414,-3.208 12.641,-3.208 4.142,0 7.5,-3.358 7.5,-7.5 0,-4.142 -3.357,-7.5 -7.499,-7.5 z M 320,304 h -17 v -65 h 17 z m -32,0 H 271 V 279.5 239 h 17 z m -73,0 v -17 h 41 v 17 z m 41,-32 h -41 v -33 h 41 z m -97,-33 h 41 v 33 h -41 z m 0,48 h 41 v 17 H 159 Z M 31,223 h 73 v 57 H 31 Z m 360.46,113 c -9.77,0 -15.083,2.657 -19.352,4.792 -3.724,1.862 -6.415,3.208 -12.643,3.208 -6.219,0 -8.906,-1.345 -12.625,-3.207 -4.266,-2.136 -9.576,-4.793 -19.389,-4.793 -9.772,0 -15.087,2.657 -19.357,4.792 -3.727,1.863 -6.419,3.208 -12.652,3.208 -6.23,0 -8.921,-1.346 -12.646,-3.208 -4.27,-2.135 -9.584,-4.792 -19.354,-4.792 -9.77,0 -15.083,2.657 -19.353,4.792 -3.725,1.862 -6.416,3.208 -12.644,3.208 -6.231,0 -8.923,-1.346 -12.649,-3.208 -4.27,-2.135 -9.585,-4.792 -19.356,-4.792 -9.771,0 -15.086,2.657 -19.356,4.792 -3.726,1.863 -6.418,3.208 -12.649,3.208 -6.231,0 -8.923,-1.346 -12.649,-3.208 -4.27,-2.135 -9.584,-4.792 -19.356,-4.792 -9.769,0 -15.082,2.657 -19.351,4.792 -3.724,1.862 -6.414,3.208 -12.641,3.208 -6.222,0 -8.911,-1.345 -12.632,-3.207 C 86.537,338.657 81.226,336 71.46,336 c -9.77,0 -15.083,2.657 -19.352,4.792 -3.724,1.862 -6.415,3.208 -12.643,3.208 -3.382,0 -5.716,-0.4 -7.743,-1.062 L 17.54,295 h 95.362 c 3.373,13.76 15.812,24 30.598,24 h 8 56 56 32 32 8 c 14.786,0 27.225,-10.24 30.598,-24 h 75.453 l -30.393,45.969 c -0.118,-0.059 -0.234,-0.117 -0.354,-0.177 C 406.537,338.657 401.226,336 391.46,336 Z"
   id="path5"
   style="fill:#000080" />
</g></g><g
       id="Icon-Architecture-Group/32/Spot-Fleet_32"
       stroke="none"
       stroke-width="1"
       fill="none"
       fill-rule="evenodd"
       transform="matrix(5.1509938,0,0,5.1509938,156.47826,179.23851)"><rect
         id="Rectangle"
         fill="#ed7100"
         x="0"
         y="0"
         width="40"
         height="40" /><path
         d="m 7.1396,20 h -1.14 v -1 h 1.14 c 0.097,-2.442 0.888,-4.767 2.321,-6.748 l 0.811,0.586 C 8.9616,14.647 8.2356,16.77 8.1396,19 h 0.86 v 1 h -0.86 c 0.096,2.23 0.822,4.353 2.132,6.162 l -0.811,0.586 C 8.0276,24.767 7.2366,22.442 7.1396,20 Z m 19.608,9.539 c -1.981,1.434 -4.305,2.225 -6.748,2.321 V 33 h -1 v -1.14 c -2.442,-0.096 -4.766,-0.887 -6.748,-2.321 l 0.586,-0.81 c 1.81,1.309 3.932,2.036 6.162,2.131 V 30 h 1 v 0.86 c 2.231,-0.095 4.353,-0.822 6.162,-2.131 z M 12.2516,9.461 c 1.982,-1.434 4.306,-2.225 6.748,-2.321 V 6 h 1 v 1.14 c 2.443,0.096 4.767,0.887 6.748,2.321 l -0.586,0.81 C 24.3526,8.962 22.2306,8.235 19.9996,8.14 V 9 h -1 V 8.14 c -2.23,0.095 -4.352,0.822 -6.162,2.131 z M 32.9996,20 h -1.139 c -0.097,2.442 -0.888,4.767 -2.322,6.748 l -0.81,-0.586 c 1.309,-1.809 2.036,-3.932 2.132,-6.162 h -0.861 v -1 h 0.861 c -0.096,-2.23 -0.823,-4.353 -2.132,-6.162 l 0.81,-0.586 c 1.434,1.981 2.225,4.306 2.322,6.748 h 1.139 z m -6.294,-8.413 3.781,-3.78 0.707,0.707 -3.781,3.78 z m -14.412,15.826 -3.78,3.78 -0.707,-0.707 3.78,-3.78 z m 11.88,-3.946 7.02,7.019 -0.707,0.707 -7.02,-7.019 z m -9.347,-7.934 -7.02,-7.019 0.707,-0.707 7.02,7.019 z M 24.9996,19 v -5 h -5 v 1 h -1 v -1.249 c 0,-0.414 0.337,-0.751 0.751,-0.751 h 5.498 c 0.414,0 0.751,0.337 0.751,0.751 v 5.498 c 0,0.414 -0.337,0.751 -0.751,0.751 h -1.249 v -1 z m -11,1 v 5 h 5 v -1 h 1 v 1.249 c 0,0.414 -0.337,0.751 -0.751,0.751 h -5.498 c -0.414,0 -0.751,-0.337 -0.751,-0.751 v -5.498 c 0,-0.414 0.337,-0.751 0.751,-0.751 h 1.249 v 1 z m 3,2 h 5 v -5 h -5 z m 6,0.129 v -5.258 c 0,-0.48 -0.39,-0.871 -0.871,-0.871 h -5.258 c -0.48,0 -0.871,0.391 -0.871,0.871 v 5.258 c 0,0.48 0.391,0.871 0.871,0.871 h 5.258 c 0.481,0 0.871,-0.391 0.871,-0.871 z"
         id="Fill-1"
         fill="#ffffff" /></g></g></svg>
